<svg width="595" height="275" viewBox="0 0 595 275" fill="none" xmlns="http://www.w3.org/2000/svg">
<g clip-path="url(#clip0_55_213)">
<rect width="595" height="275" fill="white"/>
<rect width="595" height="130" fill="white"/>
<rect width="595" height="130" fill="#343352"/>
<line x1="404" y1="93" x2="416" y2="93" stroke="#FF5677" stroke-width="2" stroke-dasharray="3 0"/>
<path d="M407.875 82.9744C407.875 82.1846 407.782 81.4643 407.595 80.8133C407.413 80.1576 407.123 79.5186 406.726 78.8964C406.334 78.2694 405.807 77.5969 405.147 76.879L406.468 75.6872C407.262 76.3716 407.93 77.0752 408.471 77.7979C409.016 78.5207 409.435 79.3104 409.727 80.1672C410.024 81.0191 410.172 81.9549 410.172 82.9744C410.172 83.9938 410.024 84.932 409.727 85.7887C409.435 86.6407 409.016 87.428 408.471 88.1508C407.93 88.8735 407.262 89.5771 406.468 90.2615L405.147 89.0697C405.845 88.3087 406.391 87.6195 406.784 87.0021C407.176 86.3846 407.456 85.76 407.624 85.1282C407.791 84.4964 407.875 83.7785 407.875 82.9744Z" fill="#FFBCD1"/>
<path d="M239.622 80.2964C239.622 80.5357 239.562 80.7559 239.442 80.9569C239.322 81.1532 239.16 81.3087 238.954 81.4236C238.748 81.5385 238.518 81.5959 238.265 81.5959C238.011 81.5959 237.781 81.5385 237.575 81.4236C237.37 81.3087 237.209 81.1532 237.094 80.9569C236.979 80.7559 236.922 80.5357 236.922 80.2964C236.922 80.0858 236.956 79.868 237.023 79.6431C237.09 79.4133 237.207 79.1333 237.374 78.8031L238.401 76.6708H239.679L239.062 79.2123C239.435 79.4756 239.622 79.8369 239.622 80.2964ZM250.769 85.0923C250.769 85.7097 250.606 86.2578 250.281 86.7364C249.956 87.2103 249.486 87.5812 248.874 87.8492C248.266 88.1125 247.548 88.2441 246.72 88.2441C245.073 88.2441 243.762 87.7655 242.786 86.8082L243.977 85.4872C244.738 86.1573 245.633 86.4923 246.663 86.4923C247.165 86.4923 247.567 86.3846 247.869 86.1692C248.17 85.9538 248.321 85.6547 248.321 85.2718C248.321 85.0277 248.266 84.8243 248.156 84.6615C248.046 84.494 247.861 84.3432 247.603 84.2092C247.349 84.0752 246.986 83.9364 246.512 83.7928C245.732 83.5535 245.107 83.2903 244.638 83.0031C244.169 82.7159 243.827 82.3856 243.611 82.0123C243.401 81.639 243.295 81.1962 243.295 80.6841C243.295 80.0954 243.46 79.5832 243.791 79.1477C244.126 78.7074 244.578 78.3723 245.148 78.1426C245.717 77.9128 246.349 77.7979 247.043 77.7979C248.522 77.7979 249.711 78.2263 250.611 79.0831L249.498 80.361C249.163 80.0834 248.802 79.8752 248.414 79.7364C248.031 79.5976 247.637 79.5282 247.23 79.5282C246.77 79.5282 246.406 79.6144 246.138 79.7867C245.87 79.9542 245.736 80.1935 245.736 80.5046C245.736 80.72 245.796 80.8995 245.916 81.0431C246.036 81.1819 246.234 81.3135 246.512 81.4379C246.794 81.5576 247.215 81.706 247.775 81.8831C248.445 82.0889 248.996 82.3258 249.427 82.5938C249.857 82.8571 250.188 83.1921 250.417 83.599C250.652 84.001 250.769 84.4988 250.769 85.0923ZM255.534 80.1241C256.305 80.1241 256.968 80.2916 257.523 80.6267C258.083 80.9569 258.509 81.426 258.801 82.0338C259.093 82.6417 259.239 83.3525 259.239 84.1662C259.239 85.0133 259.09 85.7432 258.794 86.3559C258.502 86.9638 258.078 87.4304 257.523 87.7559C256.968 88.0814 256.305 88.2441 255.534 88.2441C254.759 88.2441 254.094 88.0838 253.538 87.7631C252.983 87.4424 252.56 86.9781 252.268 86.3703C251.976 85.7576 251.83 85.0277 251.83 84.1805C251.83 83.3716 251.976 82.6632 252.268 82.0554C252.564 81.4427 252.99 80.9689 253.546 80.6338C254.106 80.294 254.768 80.1241 255.534 80.1241ZM255.534 81.7969C255.07 81.7969 254.725 81.9884 254.5 82.3713C254.28 82.7542 254.17 83.3573 254.17 84.1805C254.17 85.0181 254.28 85.6284 254.5 86.0113C254.721 86.3894 255.065 86.5785 255.534 86.5785C256.003 86.5785 256.348 86.387 256.568 86.0041C256.788 85.6212 256.898 85.0085 256.898 84.1662C256.898 83.3477 256.786 82.7494 256.561 82.3713C256.341 81.9884 255.999 81.7969 255.534 81.7969ZM265.698 77.1087C266.689 77.1087 267.56 77.2691 268.312 77.5897L267.687 79.0687C267.18 78.8773 266.634 78.7815 266.05 78.7815C265.6 78.7815 265.277 78.8629 265.081 79.0256C264.889 79.1884 264.794 79.4588 264.794 79.8369V80.8564H267.278L267.027 82.4287H264.794V88H262.539V82.4287H260.938V80.8564H262.539V79.7508C262.539 79.2434 262.659 78.7911 262.898 78.3938C263.142 77.9918 263.501 77.6783 263.975 77.4533C264.454 77.2236 265.028 77.1087 265.698 77.1087ZM276.322 87.5549C276.001 87.7655 275.628 87.933 275.202 88.0574C274.781 88.1819 274.321 88.2441 273.823 88.2441C272.847 88.2441 272.112 87.9952 271.619 87.4974C271.126 86.9997 270.88 86.3009 270.88 85.401V81.9405H269.279V80.3754H270.88V78.7241L273.149 78.4513V80.3754H275.604L275.381 81.9405H273.149V85.401C273.149 85.7791 273.232 86.0496 273.4 86.2123C273.572 86.375 273.85 86.4564 274.233 86.4564C274.711 86.4564 275.156 86.3415 275.568 86.1118L276.322 87.5549ZM285.632 80.3754L284.547 88H282.042L281.388 82.8738L280.706 88H278.244L277.117 80.3754H279.192L279.687 86.5856L280.491 81.3374H282.401L283.119 86.5856L283.628 80.3754H285.632ZM293.103 85.8031C293.103 86.0855 293.142 86.2937 293.218 86.4277C293.295 86.5569 293.424 86.655 293.606 86.7221L293.139 88.2154C292.675 88.1723 292.29 88.0718 291.983 87.9138C291.682 87.7511 291.445 87.5166 291.273 87.2103C290.99 87.5501 290.624 87.8085 290.174 87.9856C289.729 88.1579 289.257 88.2441 288.76 88.2441C288.243 88.2441 287.788 88.1436 287.396 87.9426C287.008 87.7368 286.709 87.4544 286.498 87.0954C286.288 86.7316 286.182 86.3152 286.182 85.8462C286.182 85.3005 286.328 84.8338 286.62 84.4462C286.912 84.0585 287.336 83.7641 287.891 83.5631C288.446 83.3573 289.114 83.2544 289.894 83.2544H290.921V82.9672C290.921 82.187 290.418 81.7969 289.413 81.7969C289.159 81.7969 288.839 81.8328 288.451 81.9046C288.068 81.9764 287.692 82.0745 287.324 82.199L286.8 80.6913C287.278 80.5094 287.783 80.3706 288.315 80.2749C288.846 80.1744 289.332 80.1241 289.772 80.1241C290.892 80.1241 291.727 80.3515 292.278 80.8062C292.828 81.2609 293.103 81.9309 293.103 82.8164V85.8031ZM289.542 86.6215C289.801 86.6215 290.062 86.5474 290.325 86.399C290.588 86.2458 290.787 86.04 290.921 85.7815V84.5467H290.361C289.738 84.5467 289.277 84.6424 288.975 84.8338C288.674 85.0253 288.523 85.3101 288.523 85.6882C288.523 85.985 288.611 86.2147 288.788 86.3774C288.97 86.5402 289.222 86.6215 289.542 86.6215ZM301.121 80.1456C301.575 80.1456 301.994 80.2222 302.377 80.3754L301.953 83.5631H300.532V82.1559C300.111 82.2325 299.737 82.4622 299.412 82.8451C299.086 83.228 298.83 83.7115 298.644 84.2954V86.4779H300.151V88H295.37V86.4779H296.375V81.8831H295.37V80.3754H298.105L298.522 82.0913C298.795 81.4356 299.142 80.9474 299.563 80.6267C299.989 80.306 300.508 80.1456 301.121 80.1456ZM305.879 84.8482C305.95 85.4465 306.147 85.8868 306.467 86.1692C306.788 86.4516 307.202 86.5928 307.709 86.5928C308.355 86.5928 309.006 86.3822 309.662 85.961L310.574 87.1959C310.196 87.5214 309.748 87.7774 309.231 87.9641C308.719 88.1508 308.152 88.2441 307.53 88.2441C306.678 88.2441 305.955 88.0742 305.362 87.7344C304.768 87.3945 304.321 86.9207 304.019 86.3128C303.718 85.7002 303.567 84.9942 303.567 84.1949C303.567 83.4338 303.713 82.7446 304.005 82.1272C304.297 81.5097 304.723 81.0215 305.283 80.6626C305.843 80.3036 306.51 80.1241 307.286 80.1241C308.008 80.1241 308.638 80.2797 309.174 80.5908C309.715 80.9019 310.131 81.3518 310.423 81.9405C310.715 82.5292 310.861 83.228 310.861 84.0369C310.861 84.348 310.847 84.6185 310.818 84.8482H305.879ZM307.286 81.6462C306.869 81.6462 306.537 81.7969 306.288 82.0985C306.044 82.4 305.898 82.8619 305.85 83.4841H308.65C308.635 82.2588 308.181 81.6462 307.286 81.6462ZM328.382 82.9744C328.382 84.8362 327.937 86.1405 327.047 86.8872C326.161 87.6291 325.001 88 323.565 88H320.879V78.0492H323.392C324.354 78.0492 325.199 78.1856 325.927 78.4585C326.654 78.7265 327.245 79.2243 327.7 79.9518C328.155 80.6745 328.382 81.6821 328.382 82.9744ZM325.941 82.9744C325.941 82.1224 325.848 81.4619 325.661 80.9928C325.474 80.519 325.221 80.1959 324.9 80.0236C324.584 79.8465 324.196 79.7579 323.737 79.7579H323.234V86.2985H323.737C324.201 86.2985 324.594 86.2003 324.914 86.0041C325.24 85.8031 325.491 85.4585 325.668 84.9703C325.85 84.4821 325.941 83.8168 325.941 82.9744ZM331.718 84.8482C331.79 85.4465 331.986 85.8868 332.307 86.1692C332.628 86.4516 333.042 86.5928 333.549 86.5928C334.195 86.5928 334.846 86.3822 335.502 85.961L336.414 87.1959C336.036 87.5214 335.588 87.7774 335.071 87.9641C334.559 88.1508 333.992 88.2441 333.37 88.2441C332.518 88.2441 331.795 88.0742 331.201 87.7344C330.608 87.3945 330.16 86.9207 329.859 86.3128C329.557 85.7002 329.407 84.9942 329.407 84.1949C329.407 83.4338 329.553 82.7446 329.845 82.1272C330.137 81.5097 330.563 81.0215 331.123 80.6626C331.683 80.3036 332.35 80.1241 333.126 80.1241C333.848 80.1241 334.478 80.2797 335.014 80.5908C335.555 80.9019 335.971 81.3518 336.263 81.9405C336.555 82.5292 336.701 83.228 336.701 84.0369C336.701 84.348 336.687 84.6185 336.658 84.8482H331.718ZM333.126 81.6462C332.709 81.6462 332.377 81.7969 332.128 82.0985C331.884 82.4 331.738 82.8619 331.69 83.4841H334.49C334.475 82.2588 334.021 81.6462 333.126 81.6462ZM343.261 80.3754H345.558L343.017 88H340.346L337.776 80.3754H340.224L341.71 86.2626L343.261 80.3754ZM348.945 84.8482C349.017 85.4465 349.213 85.8868 349.534 86.1692C349.854 86.4516 350.268 86.5928 350.776 86.5928C351.422 86.5928 352.073 86.3822 352.729 85.961L353.64 87.1959C353.262 87.5214 352.815 87.7774 352.298 87.9641C351.786 88.1508 351.218 88.2441 350.596 88.2441C349.744 88.2441 349.022 88.0742 348.428 87.7344C347.835 87.3945 347.387 86.9207 347.085 86.3128C346.784 85.7002 346.633 84.9942 346.633 84.1949C346.633 83.4338 346.779 82.7446 347.071 82.1272C347.363 81.5097 347.789 81.0215 348.349 80.6626C348.909 80.3036 349.577 80.1241 350.352 80.1241C351.075 80.1241 351.704 80.2797 352.24 80.5908C352.781 80.9019 353.198 81.3518 353.49 81.9405C353.782 82.5292 353.928 83.228 353.928 84.0369C353.928 84.348 353.913 84.6185 353.884 84.8482H348.945ZM350.352 81.6462C349.936 81.6462 349.603 81.7969 349.354 82.0985C349.11 82.4 348.964 82.8619 348.916 83.4841H351.716C351.702 82.2588 351.247 81.6462 350.352 81.6462ZM359.569 85.6021C359.569 85.8988 359.652 86.1166 359.82 86.2554C359.992 86.3894 360.236 86.4564 360.552 86.4564C360.897 86.4564 361.256 86.3798 361.629 86.2267L362.175 87.7415C361.538 88.0766 360.803 88.2441 359.971 88.2441C359.076 88.2441 358.405 87.988 357.96 87.4759C357.52 86.959 357.3 86.241 357.3 85.3221V78.8964H355.053V77.3456H359.569V85.6021ZM367.507 80.1241C368.278 80.1241 368.94 80.2916 369.496 80.6267C370.056 80.9569 370.482 81.426 370.774 82.0338C371.066 82.6417 371.212 83.3525 371.212 84.1662C371.212 85.0133 371.063 85.7432 370.766 86.3559C370.474 86.9638 370.051 87.4304 369.496 87.7559C368.94 88.0814 368.278 88.2441 367.507 88.2441C366.732 88.2441 366.066 88.0838 365.511 87.7631C364.956 87.4424 364.532 86.9781 364.24 86.3703C363.948 85.7576 363.802 85.0277 363.802 84.1805C363.802 83.3716 363.948 82.6632 364.24 82.0554C364.537 81.4427 364.963 80.9689 365.518 80.6338C366.078 80.294 366.741 80.1241 367.507 80.1241ZM367.507 81.7969C367.043 81.7969 366.698 81.9884 366.473 82.3713C366.253 82.7542 366.143 83.3573 366.143 84.1805C366.143 85.0181 366.253 85.6284 366.473 86.0113C366.693 86.3894 367.038 86.5785 367.507 86.5785C367.976 86.5785 368.321 86.387 368.541 86.0041C368.761 85.6212 368.871 85.0085 368.871 84.1662C368.871 83.3477 368.759 82.7494 368.534 82.3713C368.313 81.9884 367.971 81.7969 367.507 81.7969ZM377.039 80.1241C378.001 80.1241 378.705 80.4759 379.15 81.1795C379.6 81.8783 379.825 82.8738 379.825 84.1662C379.825 84.9559 379.708 85.6595 379.473 86.2769C379.243 86.8896 378.908 87.3706 378.468 87.72C378.028 88.0694 377.503 88.2441 376.896 88.2441C376.154 88.2441 375.551 87.9785 375.086 87.4472V90.9436L372.818 91.1805V80.3754H374.828L374.928 81.2297C375.225 80.8516 375.555 80.574 375.919 80.3969C376.283 80.215 376.656 80.1241 377.039 80.1241ZM376.336 81.7969C376.082 81.7969 375.852 81.8735 375.646 82.0267C375.445 82.175 375.259 82.3928 375.086 82.68V85.8964C375.249 86.1357 375.417 86.3104 375.589 86.4205C375.766 86.5258 375.972 86.5785 376.206 86.5785C376.623 86.5785 376.939 86.3894 377.154 86.0113C377.374 85.6332 377.484 85.0277 377.484 84.1949C377.484 83.5822 377.439 83.1012 377.348 82.7518C377.262 82.3976 377.135 82.1511 376.967 82.0123C376.8 81.8687 376.589 81.7969 376.336 81.7969ZM383.398 84.8482C383.47 85.4465 383.666 85.8868 383.987 86.1692C384.307 86.4516 384.722 86.5928 385.229 86.5928C385.875 86.5928 386.526 86.3822 387.182 85.961L388.093 87.1959C387.715 87.5214 387.268 87.7774 386.751 87.9641C386.239 88.1508 385.672 88.2441 385.049 88.2441C384.197 88.2441 383.475 88.0742 382.881 87.7344C382.288 87.3945 381.84 86.9207 381.539 86.3128C381.237 85.7002 381.086 84.9942 381.086 84.1949C381.086 83.4338 381.232 82.7446 381.524 82.1272C381.816 81.5097 382.242 81.0215 382.802 80.6626C383.362 80.3036 384.03 80.1241 384.805 80.1241C385.528 80.1241 386.157 80.2797 386.693 80.5908C387.234 80.9019 387.651 81.3518 387.943 81.9405C388.235 82.5292 388.381 83.228 388.381 84.0369C388.381 84.348 388.366 84.6185 388.338 84.8482H383.398ZM384.805 81.6462C384.389 81.6462 384.056 81.7969 383.807 82.0985C383.563 82.4 383.417 82.8619 383.369 83.4841H386.169C386.155 82.2588 385.7 81.6462 384.805 81.6462ZM395.867 80.1456C396.321 80.1456 396.74 80.2222 397.123 80.3754L396.7 83.5631H395.278V82.1559C394.857 82.2325 394.484 82.4622 394.158 82.8451C393.833 83.228 393.576 83.7115 393.39 84.2954V86.4779H394.898V88H390.116V86.4779H391.121V81.8831H390.116V80.3754H392.851L393.268 82.0913C393.541 81.4356 393.888 80.9474 394.309 80.6267C394.735 80.306 395.254 80.1456 395.867 80.1456ZM400.632 77.9703C400.632 77.7309 400.692 77.5132 400.811 77.3169C400.931 77.1159 401.094 76.9579 401.3 76.8431C401.505 76.7282 401.735 76.6708 401.989 76.6708C402.242 76.6708 402.47 76.7282 402.671 76.8431C402.877 76.9579 403.037 77.1159 403.152 77.3169C403.271 77.5132 403.331 77.7309 403.331 77.9703C403.331 78.1856 403.298 78.4058 403.231 78.6308C403.164 78.8509 403.047 79.1285 402.879 79.4636L401.852 81.5959H400.574L401.192 79.0544C400.818 78.7911 400.632 78.4297 400.632 77.9703Z" fill="#F7F39A"/>
<path d="M138.064 86.6215C138.451 86.6215 138.758 86.5617 138.983 86.4421C139.212 86.3176 139.327 86.1381 139.327 85.9036C139.327 85.7361 139.282 85.5997 139.191 85.4944C139.1 85.3843 138.93 85.2814 138.681 85.1856C138.432 85.0851 138.044 84.9631 137.518 84.8195C136.752 84.6137 136.166 84.3313 135.759 83.9723C135.357 83.6133 135.156 83.1156 135.156 82.479C135.156 82.0195 135.283 81.6126 135.536 81.2585C135.795 80.9043 136.173 80.6267 136.671 80.4256C137.169 80.2246 137.767 80.1241 138.466 80.1241C139.677 80.1241 140.706 80.4328 141.553 81.0503L140.648 82.3856C140.318 82.1846 139.971 82.0267 139.607 81.9118C139.248 81.7969 138.889 81.7395 138.53 81.7395C138.162 81.7395 137.886 81.7897 137.705 81.8903C137.528 81.986 137.439 82.132 137.439 82.3282C137.439 82.4622 137.484 82.5747 137.575 82.6656C137.671 82.7566 137.841 82.8499 138.085 82.9456C138.334 83.0414 138.719 83.1634 139.241 83.3118C139.791 83.465 140.239 83.6349 140.584 83.8215C140.928 84.0034 141.196 84.2475 141.388 84.5538C141.584 84.8554 141.682 85.2455 141.682 85.7241C141.682 86.2602 141.519 86.7197 141.194 87.1026C140.873 87.4807 140.44 87.7655 139.894 87.9569C139.349 88.1484 138.743 88.2441 138.078 88.2441C137.365 88.2441 136.723 88.1436 136.154 87.9426C135.584 87.7368 135.094 87.4544 134.682 87.0954L135.824 85.8174C136.139 86.0663 136.486 86.2626 136.865 86.4062C137.243 86.5497 137.642 86.6215 138.064 86.6215ZM145.586 84.8482C145.657 85.4465 145.854 85.8868 146.174 86.1692C146.495 86.4516 146.909 86.5928 147.416 86.5928C148.063 86.5928 148.713 86.3822 149.369 85.961L150.281 87.1959C149.903 87.5214 149.455 87.7774 148.938 87.9641C148.426 88.1508 147.859 88.2441 147.237 88.2441C146.385 88.2441 145.662 88.0742 145.069 87.7344C144.475 87.3945 144.028 86.9207 143.726 86.3128C143.425 85.7002 143.274 84.9942 143.274 84.1949C143.274 83.4338 143.42 82.7446 143.712 82.1272C144.004 81.5097 144.43 81.0215 144.99 80.6626C145.55 80.3036 146.217 80.1241 146.993 80.1241C147.716 80.1241 148.345 80.2797 148.881 80.5908C149.422 80.9019 149.838 81.3518 150.13 81.9405C150.422 82.5292 150.568 83.228 150.568 84.0369C150.568 84.348 150.554 84.6185 150.525 84.8482H145.586ZM146.993 81.6462C146.576 81.6462 146.244 81.7969 145.995 82.0985C145.751 82.4 145.605 82.8619 145.557 83.4841H148.357C148.343 82.2588 147.888 81.6462 146.993 81.6462ZM159.095 87.5549C158.775 87.7655 158.401 87.933 157.975 88.0574C157.554 88.1819 157.095 88.2441 156.597 88.2441C155.62 88.2441 154.886 87.9952 154.393 87.4974C153.9 86.9997 153.653 86.3009 153.653 85.401V81.9405H152.052V80.3754H153.653V78.7241L155.922 78.4513V80.3754H158.377L158.155 81.9405H155.922V85.401C155.922 85.7791 156.006 86.0496 156.173 86.2123C156.346 86.375 156.623 86.4564 157.006 86.4564C157.485 86.4564 157.93 86.3415 158.341 86.1118L159.095 87.5549ZM168.118 81.2872C168.118 82.0386 167.955 82.6704 167.63 83.1826C167.304 83.6899 166.845 84.068 166.251 84.3169C165.662 84.5658 164.968 84.6903 164.169 84.6903H163.092V88H160.737V78.0492H163.868C165.236 78.0492 166.287 78.3221 167.019 78.8677C167.752 79.4085 168.118 80.215 168.118 81.2872ZM165.691 81.2944C165.691 80.7631 165.543 80.3706 165.246 80.1169C164.949 79.8585 164.499 79.7292 163.896 79.7292H163.092V82.9815H164.018C164.554 82.9815 164.966 82.8427 165.253 82.5651C165.545 82.2875 165.691 81.8639 165.691 81.2944ZM172.761 80.1241C173.531 80.1241 174.194 80.2916 174.75 80.6267C175.31 80.9569 175.736 81.426 176.027 82.0338C176.319 82.6417 176.465 83.3525 176.465 84.1662C176.465 85.0133 176.317 85.7432 176.02 86.3559C175.728 86.9638 175.305 87.4304 174.75 87.7559C174.194 88.0814 173.531 88.2441 172.761 88.2441C171.985 88.2441 171.32 88.0838 170.765 87.7631C170.21 87.4424 169.786 86.9781 169.494 86.3703C169.202 85.7576 169.056 85.0277 169.056 84.1805C169.056 83.3716 169.202 82.6632 169.494 82.0554C169.791 81.4427 170.217 80.9689 170.772 80.6338C171.332 80.294 171.995 80.1241 172.761 80.1241ZM172.761 81.7969C172.297 81.7969 171.952 81.9884 171.727 82.3713C171.507 82.7542 171.397 83.3573 171.397 84.1805C171.397 85.0181 171.507 85.6284 171.727 86.0113C171.947 86.3894 172.292 86.5785 172.761 86.5785C173.23 86.5785 173.574 86.387 173.795 86.0041C174.015 85.6212 174.125 85.0085 174.125 84.1662C174.125 83.3477 174.012 82.7494 173.787 82.3713C173.567 81.9884 173.225 81.7969 172.761 81.7969ZM181.13 86.6215C181.518 86.6215 181.824 86.5617 182.049 86.4421C182.279 86.3176 182.394 86.1381 182.394 85.9036C182.394 85.7361 182.348 85.5997 182.257 85.4944C182.166 85.3843 181.996 85.2814 181.747 85.1856C181.499 85.0851 181.111 84.9631 180.584 84.8195C179.819 84.6137 179.232 84.3313 178.825 83.9723C178.423 83.6133 178.222 83.1156 178.222 82.479C178.222 82.0195 178.349 81.6126 178.603 81.2585C178.861 80.9043 179.239 80.6267 179.737 80.4256C180.235 80.2246 180.833 80.1241 181.532 80.1241C182.743 80.1241 183.772 80.4328 184.619 81.0503L183.715 82.3856C183.384 82.1846 183.037 82.0267 182.674 81.9118C182.315 81.7969 181.956 81.7395 181.597 81.7395C181.228 81.7395 180.953 81.7897 180.771 81.8903C180.594 81.986 180.505 82.132 180.505 82.3282C180.505 82.4622 180.551 82.5747 180.642 82.6656C180.738 82.7566 180.907 82.8499 181.152 82.9456C181.4 83.0414 181.786 83.1634 182.307 83.3118C182.858 83.465 183.305 83.6349 183.65 83.8215C183.995 84.0034 184.263 84.2475 184.454 84.5538C184.65 84.8554 184.748 85.2455 184.748 85.7241C184.748 86.2602 184.586 86.7197 184.26 87.1026C183.94 87.4807 183.506 87.7655 182.961 87.9569C182.415 88.1484 181.81 88.2441 181.144 88.2441C180.431 88.2441 179.79 88.1436 179.22 87.9426C178.651 87.7368 178.16 87.4544 177.748 87.0954L178.89 85.8174C179.206 86.0663 179.553 86.2626 179.931 86.4062C180.309 86.5497 180.709 86.6215 181.13 86.6215ZM189.973 76.3836C190.231 76.3836 190.461 76.441 190.662 76.5559C190.863 76.666 191.021 76.8191 191.136 77.0154C191.251 77.2068 191.308 77.4222 191.308 77.6615C191.308 77.9009 191.251 78.1186 191.136 78.3149C191.021 78.5111 190.861 78.6667 190.655 78.7815C190.454 78.8916 190.227 78.9467 189.973 78.9467C189.715 78.9467 189.482 78.8916 189.277 78.7815C189.071 78.6667 188.91 78.5111 188.796 78.3149C188.681 78.1186 188.623 77.9009 188.623 77.6615C188.623 77.4222 188.681 77.2068 188.796 77.0154C188.91 76.8191 189.071 76.666 189.277 76.5559C189.482 76.441 189.715 76.3836 189.973 76.3836ZM186.986 80.3754H191.344V86.4492H193.283V88H186.915V86.4492H189.076V81.9262H186.986V80.3754ZM202.162 87.5549C201.841 87.7655 201.468 87.933 201.042 88.0574C200.62 88.1819 200.161 88.2441 199.663 88.2441C198.687 88.2441 197.952 87.9952 197.459 87.4974C196.966 86.9997 196.72 86.3009 196.72 85.401V81.9405H195.119V80.3754H196.72V78.7241L198.988 78.4513V80.3754H201.444L201.221 81.9405H198.988V85.401C198.988 85.7791 199.072 86.0496 199.24 86.2123C199.412 86.375 199.69 86.4564 200.072 86.4564C200.551 86.4564 200.996 86.3415 201.408 86.1118L202.162 87.5549ZM207.2 76.3836C207.458 76.3836 207.688 76.441 207.889 76.5559C208.09 76.666 208.248 76.8191 208.363 77.0154C208.478 77.2068 208.535 77.4222 208.535 77.6615C208.535 77.9009 208.478 78.1186 208.363 78.3149C208.248 78.5111 208.087 78.6667 207.882 78.7815C207.681 78.8916 207.453 78.9467 207.2 78.9467C206.941 78.9467 206.709 78.8916 206.503 78.7815C206.297 78.6667 206.137 78.5111 206.022 78.3149C205.907 78.1186 205.85 77.9009 205.85 77.6615C205.85 77.4222 205.907 77.2068 206.022 77.0154C206.137 76.8191 206.297 76.666 206.503 76.5559C206.709 76.441 206.941 76.3836 207.2 76.3836ZM204.213 80.3754H208.571V86.4492H210.509V88H204.141V86.4492H206.302V81.9262H204.213V80.3754ZM215.827 80.1241C216.598 80.1241 217.261 80.2916 217.816 80.6267C218.376 80.9569 218.802 81.426 219.094 82.0338C219.386 82.6417 219.532 83.3525 219.532 84.1662C219.532 85.0133 219.383 85.7432 219.087 86.3559C218.795 86.9638 218.371 87.4304 217.816 87.7559C217.261 88.0814 216.598 88.2441 215.827 88.2441C215.052 88.2441 214.387 88.0838 213.831 87.7631C213.276 87.4424 212.853 86.9781 212.561 86.3703C212.269 85.7576 212.123 85.0277 212.123 84.1805C212.123 83.3716 212.269 82.6632 212.561 82.0554C212.857 81.4427 213.283 80.9689 213.839 80.6338C214.399 80.294 215.061 80.1241 215.827 80.1241ZM215.827 81.7969C215.363 81.7969 215.018 81.9884 214.793 82.3713C214.573 82.7542 214.463 83.3573 214.463 84.1805C214.463 85.0181 214.573 85.6284 214.793 86.0113C215.014 86.3894 215.358 86.5785 215.827 86.5785C216.296 86.5785 216.641 86.387 216.861 86.0041C217.081 85.6212 217.191 85.0085 217.191 84.1662C217.191 83.3477 217.079 82.7494 216.854 82.3713C216.634 81.9884 216.291 81.7969 215.827 81.7969ZM221.138 88V80.3754H223.119L223.277 81.2585C223.622 80.8708 223.983 80.586 224.362 80.4041C224.74 80.2174 225.168 80.1241 225.647 80.1241C226.302 80.1241 226.815 80.3251 227.183 80.7272C227.556 81.1244 227.743 81.6821 227.743 82.4V88H225.474V83.0533C225.474 82.7374 225.45 82.4885 225.403 82.3067C225.359 82.1248 225.285 81.9956 225.18 81.919C225.075 81.8376 224.929 81.7969 224.742 81.7969C224.512 81.7969 224.287 81.8711 224.067 82.0195C223.852 82.1631 223.632 82.3785 223.407 82.6656V88H221.138ZM232.487 82.9744C232.487 83.7785 232.57 84.4964 232.738 85.1282C232.905 85.76 233.185 86.3846 233.578 87.0021C233.97 87.6195 234.516 88.3087 235.215 89.0697L233.894 90.2615C233.099 89.5771 232.429 88.8735 231.884 88.1508C231.343 87.428 230.924 86.6407 230.627 85.7887C230.335 84.932 230.189 83.9938 230.189 82.9744C230.189 81.9549 230.335 81.0191 230.627 80.1672C230.924 79.3104 231.343 78.5207 231.884 77.7979C232.429 77.0752 233.099 76.3716 233.894 75.6872L235.215 76.879C234.554 77.5969 234.025 78.2694 233.628 78.8964C233.236 79.5186 232.946 80.1576 232.759 80.8133C232.578 81.4643 232.487 82.1846 232.487 82.9744Z" fill="#FFBCD1"/>
<path d="M129.707 86.6431C129.707 86.3559 129.778 86.0903 129.922 85.8462C130.066 85.6021 130.259 85.4082 130.504 85.2646C130.752 85.1162 131.021 85.0421 131.308 85.0421C131.595 85.0421 131.861 85.1162 132.105 85.2646C132.354 85.4082 132.55 85.6021 132.693 85.8462C132.837 86.0903 132.909 86.3559 132.909 86.6431C132.909 86.9303 132.837 87.1959 132.693 87.44C132.55 87.6841 132.354 87.8779 132.105 88.0215C131.861 88.1699 131.595 88.2441 131.308 88.2441C131.021 88.2441 130.752 88.1699 130.504 88.0215C130.259 87.8779 130.066 87.6841 129.922 87.44C129.778 87.1959 129.707 86.9303 129.707 86.6431Z" fill="#D5EDED"/>
<path d="M76.2779 81.2872C76.2779 82.0386 76.1152 82.6704 75.7897 83.1826C75.4643 83.6899 75.0048 84.068 74.4113 84.3169C73.8226 84.5658 73.1285 84.6903 72.3292 84.6903H71.2523V88H68.8974V78.0492H72.0277C73.3966 78.0492 74.4472 78.3221 75.1795 78.8677C75.9118 79.4085 76.2779 80.215 76.2779 81.2872ZM73.8513 81.2944C73.8513 80.7631 73.7029 80.3706 73.4062 80.1169C73.1094 79.8585 72.6595 79.7292 72.0564 79.7292H71.2523V82.9815H72.1785C72.7145 82.9815 73.1262 82.8427 73.4133 82.5651C73.7053 82.2875 73.8513 81.8639 73.8513 81.2944ZM83.441 80.1456C83.8957 80.1456 84.3145 80.2222 84.6974 80.3754L84.2738 83.5631H82.8523V82.1559C82.4311 82.2325 82.0577 82.4622 81.7323 82.8451C81.4068 83.228 81.1507 83.7115 80.9641 84.2954V86.4779H82.4717V88H77.6902V86.4779H78.6953V81.8831H77.6902V80.3754H80.4256L80.842 82.0913C81.1148 81.4356 81.4618 80.9474 81.883 80.6267C82.309 80.306 82.8283 80.1456 83.441 80.1456ZM89.5343 80.1241C90.3049 80.1241 90.9678 80.2916 91.523 80.6267C92.083 80.9569 92.509 81.426 92.8009 82.0338C93.0929 82.6417 93.2389 83.3525 93.2389 84.1662C93.2389 85.0133 93.0905 85.7432 92.7937 86.3559C92.5018 86.9638 92.0782 87.4304 91.523 87.7559C90.9678 88.0814 90.3049 88.2441 89.5343 88.2441C88.7589 88.2441 88.0936 88.0838 87.5384 87.7631C86.9831 87.4424 86.5596 86.9781 86.2676 86.3703C85.9756 85.7576 85.8296 85.0277 85.8296 84.1805C85.8296 83.3716 85.9756 82.6632 86.2676 82.0554C86.5643 81.4427 86.9903 80.9689 87.5455 80.6338C88.1055 80.294 88.7684 80.1241 89.5343 80.1241ZM89.5343 81.7969C89.07 81.7969 88.7254 81.9884 88.5004 82.3713C88.2802 82.7542 88.1702 83.3573 88.1702 84.1805C88.1702 85.0181 88.2802 85.6284 88.5004 86.0113C88.7206 86.3894 89.0652 86.5785 89.5343 86.5785C90.0033 86.5785 90.3479 86.387 90.5681 86.0041C90.7883 85.6212 90.8984 85.0085 90.8984 84.1662C90.8984 83.3477 90.7859 82.7494 90.5609 82.3713C90.3408 81.9884 89.9985 81.7969 89.5343 81.7969ZM99.6983 77.1087C100.689 77.1087 101.56 77.2691 102.312 77.5897L101.687 79.0687C101.18 78.8773 100.634 78.7815 100.05 78.7815C99.6002 78.7815 99.2771 78.8629 99.0809 79.0256C98.8894 79.1884 98.7937 79.4588 98.7937 79.8369V80.8564H101.278L101.027 82.4287H98.7937V88H96.5393V82.4287H94.9383V80.8564H96.5393V79.7508C96.5393 79.2434 96.659 78.7911 96.8983 78.3938C97.1424 77.9918 97.5014 77.6783 97.9752 77.4533C98.4539 77.2236 99.0282 77.1087 99.6983 77.1087ZM106.746 76.7426C107.005 76.7426 107.235 76.8 107.436 76.9149C107.637 77.025 107.795 77.1781 107.91 77.3744C108.024 77.5658 108.082 77.7812 108.082 78.0205C108.082 78.2598 108.024 78.4776 107.91 78.6738C107.795 78.8701 107.634 79.0256 107.429 79.1405C107.227 79.2506 107 79.3056 106.746 79.3056C106.488 79.3056 106.256 79.2506 106.05 79.1405C105.844 79.0256 105.684 78.8701 105.569 78.6738C105.454 78.4776 105.397 78.2598 105.397 78.0205C105.397 77.7812 105.454 77.5658 105.569 77.3744C105.684 77.1781 105.844 77.025 106.05 76.9149C106.256 76.8 106.488 76.7426 106.746 76.7426ZM103.76 80.8564H108.118V86.4492H110.056V88H103.688V86.4492H105.849V82.4287H103.76V80.8564ZM116.049 85.6021C116.049 85.8988 116.133 86.1166 116.3 86.2554C116.473 86.3894 116.717 86.4564 117.033 86.4564C117.377 86.4564 117.736 86.3798 118.109 86.2267L118.655 87.7415C118.019 88.0766 117.284 88.2441 116.451 88.2441C115.556 88.2441 114.886 87.988 114.441 87.4759C114 86.959 113.78 86.241 113.78 85.3221V78.8964H111.533V77.3456H116.049V85.6021ZM122.652 84.8482C122.724 85.4465 122.92 85.8868 123.241 86.1692C123.561 86.4516 123.975 86.5928 124.483 86.5928C125.129 86.5928 125.78 86.3822 126.436 85.961L127.347 87.1959C126.969 87.5214 126.522 87.7774 126.005 87.9641C125.493 88.1508 124.925 88.2441 124.303 88.2441C123.451 88.2441 122.729 88.0742 122.135 87.7344C121.542 87.3945 121.094 86.9207 120.793 86.3128C120.491 85.7002 120.34 84.9942 120.34 84.1949C120.34 83.4338 120.486 82.7446 120.778 82.1272C121.07 81.5097 121.496 81.0215 122.056 80.6626C122.616 80.3036 123.284 80.1241 124.059 80.1241C124.782 80.1241 125.411 80.2797 125.947 80.5908C126.488 80.9019 126.905 81.3518 127.197 81.9405C127.489 82.5292 127.635 83.228 127.635 84.0369C127.635 84.348 127.62 84.6185 127.591 84.8482H122.652ZM124.059 81.6462C123.643 81.6462 123.31 81.7969 123.061 82.0985C122.817 82.4 122.671 82.8619 122.623 83.4841H125.423C125.409 82.2588 124.954 81.6462 124.059 81.6462Z" fill="#FF5677"/>
<path d="M373.875 64.9744C373.875 64.1846 373.782 63.4643 373.595 62.8133C373.413 62.1576 373.123 61.5186 372.726 60.8964C372.334 60.2694 371.807 59.5969 371.147 58.879L372.468 57.6872C373.262 58.3716 373.93 59.0752 374.471 59.7979C375.016 60.5207 375.435 61.3104 375.727 62.1672C376.024 63.0191 376.172 63.9549 376.172 64.9744C376.172 65.9938 376.024 66.932 375.727 67.7887C375.435 68.6407 375.016 69.428 374.471 70.1508C373.93 70.8735 373.262 71.5771 372.468 72.2615L371.147 71.0697C371.845 70.3087 372.391 69.6195 372.784 69.0021C373.176 68.3846 373.456 67.76 373.624 67.1282C373.791 66.4964 373.875 65.7785 373.875 64.9744ZM381.921 62.2605C382.194 62.2605 382.445 62.3299 382.675 62.4687C382.905 62.6075 383.086 62.7918 383.22 63.0215C383.354 63.2513 383.421 63.5002 383.421 63.7682C383.421 64.0362 383.354 64.2851 383.22 64.5149C383.086 64.7446 382.905 64.9289 382.675 65.0677C382.445 65.2017 382.194 65.2687 381.921 65.2687C381.648 65.2687 381.394 65.2017 381.16 65.0677C380.93 64.9289 380.746 64.7446 380.607 64.5149C380.473 64.2851 380.406 64.0362 380.406 63.7682C380.406 63.5002 380.473 63.2513 380.607 63.0215C380.746 62.7918 380.93 62.6075 381.16 62.4687C381.394 62.3299 381.648 62.2605 381.921 62.2605ZM381.921 67.1713C382.203 67.1713 382.457 67.2359 382.682 67.3651C382.912 67.4944 383.091 67.6738 383.22 67.9036C383.354 68.1285 383.421 68.3822 383.421 68.6646C383.421 68.9087 383.378 69.1576 383.292 69.4113C383.206 69.6602 383.051 70.0479 382.826 70.5744L381.828 72.8359H380.363L381.067 69.8923C380.856 69.7583 380.693 69.5836 380.578 69.3682C380.464 69.1528 380.406 68.9135 380.406 68.6503C380.406 68.3726 380.473 68.1214 380.607 67.8964C380.741 67.6715 380.923 67.4944 381.153 67.3651C381.383 67.2359 381.639 67.1713 381.921 67.1713Z" fill="#FFBCD1"/>
<path d="M239.622 62.2964C239.622 62.5357 239.562 62.7559 239.442 62.9569C239.322 63.1532 239.16 63.3087 238.954 63.4236C238.748 63.5385 238.518 63.5959 238.265 63.5959C238.011 63.5959 237.781 63.5385 237.575 63.4236C237.37 63.3087 237.209 63.1532 237.094 62.9569C236.979 62.7559 236.922 62.5357 236.922 62.2964C236.922 62.0858 236.956 61.868 237.023 61.6431C237.09 61.4133 237.207 61.1333 237.374 60.8031L238.401 58.6708H239.679L239.062 61.2123C239.435 61.4756 239.622 61.8369 239.622 62.2964ZM250.374 70H243.949V60.0492H246.304V68.1405H250.618L250.374 70ZM254.199 66.8482C254.271 67.4465 254.467 67.8868 254.788 68.1692C255.108 68.4516 255.522 68.5928 256.03 68.5928C256.676 68.5928 257.327 68.3822 257.982 67.961L258.894 69.1959C258.516 69.5214 258.069 69.7774 257.552 69.9641C257.04 70.1508 256.472 70.2441 255.85 70.2441C254.998 70.2441 254.275 70.0742 253.682 69.7344C253.088 69.3945 252.641 68.9207 252.339 68.3128C252.038 67.7002 251.887 66.9942 251.887 66.1949C251.887 65.4338 252.033 64.7446 252.325 64.1272C252.617 63.5097 253.043 63.0215 253.603 62.6626C254.163 62.3036 254.831 62.1241 255.606 62.1241C256.329 62.1241 256.958 62.2797 257.494 62.5908C258.035 62.9019 258.452 63.3518 258.743 63.9405C259.035 64.5292 259.181 65.228 259.181 66.0369C259.181 66.348 259.167 66.6185 259.138 66.8482H254.199ZM255.606 63.6462C255.19 63.6462 254.857 63.7969 254.608 64.0985C254.364 64.4 254.218 64.8619 254.17 65.4841H256.97C256.956 64.2588 256.501 63.6462 255.606 63.6462ZM264.148 62.1241C264.918 62.1241 265.581 62.2916 266.136 62.6267C266.696 62.9569 267.122 63.426 267.414 64.0338C267.706 64.6417 267.852 65.3525 267.852 66.1662C267.852 67.0133 267.704 67.7432 267.407 68.3559C267.115 68.9638 266.691 69.4304 266.136 69.7559C265.581 70.0814 264.918 70.2441 264.148 70.2441C263.372 70.2441 262.707 70.0838 262.152 69.7631C261.596 69.4424 261.173 68.9781 260.881 68.3703C260.589 67.7576 260.443 67.0277 260.443 66.1805C260.443 65.3716 260.589 64.6632 260.881 64.0554C261.178 63.4427 261.604 62.9689 262.159 62.6338C262.719 62.294 263.382 62.1241 264.148 62.1241ZM264.148 63.7969C263.683 63.7969 263.339 63.9884 263.114 64.3713C262.894 64.7542 262.783 65.3573 262.783 66.1805C262.783 67.0181 262.894 67.6284 263.114 68.0113C263.334 68.3894 263.678 68.5785 264.148 68.5785C264.617 68.5785 264.961 68.387 265.181 68.0041C265.402 67.6212 265.512 67.0085 265.512 66.1662C265.512 65.3477 265.399 64.7494 265.174 64.3713C264.954 63.9884 264.612 63.7969 264.148 63.7969ZM269.458 70V62.3754H271.44L271.598 63.2585C271.942 62.8708 272.304 62.586 272.682 62.4041C273.06 62.2174 273.488 62.1241 273.967 62.1241C274.623 62.1241 275.135 62.3251 275.503 62.7272C275.877 63.1244 276.063 63.6821 276.063 64.4V70H273.795V65.0533C273.795 64.7374 273.771 64.4885 273.723 64.3067C273.68 64.1248 273.606 63.9956 273.5 63.919C273.395 63.8376 273.249 63.7969 273.062 63.7969C272.833 63.7969 272.608 63.8711 272.387 64.0195C272.172 64.1631 271.952 64.3785 271.727 64.6656V70H269.458ZM284.49 67.8031C284.49 68.0855 284.528 68.2937 284.605 68.4277C284.681 68.5569 284.811 68.655 284.993 68.7221L284.526 70.2154C284.062 70.1723 283.676 70.0718 283.37 69.9138C283.068 69.7511 282.832 69.5166 282.659 69.2103C282.377 69.5501 282.011 69.8085 281.561 69.9856C281.116 70.1579 280.644 70.2441 280.146 70.2441C279.629 70.2441 279.175 70.1436 278.782 69.9426C278.395 69.7368 278.095 69.4544 277.885 69.0954C277.674 68.7316 277.569 68.3152 277.569 67.8462C277.569 67.3005 277.715 66.8338 278.007 66.4462C278.299 66.0585 278.722 65.7641 279.278 65.5631C279.833 65.3573 280.501 65.2544 281.281 65.2544H282.307V64.9672C282.307 64.187 281.805 63.7969 280.8 63.7969C280.546 63.7969 280.225 63.8328 279.838 63.9046C279.455 63.9764 279.079 64.0745 278.711 64.199L278.186 62.6913C278.665 62.5094 279.17 62.3706 279.701 62.2749C280.233 62.1744 280.718 62.1241 281.159 62.1241C282.279 62.1241 283.114 62.3515 283.664 62.8062C284.215 63.2609 284.49 63.9309 284.49 64.8164V67.8031ZM280.929 68.6215C281.187 68.6215 281.448 68.5474 281.712 68.399C281.975 68.2458 282.173 68.04 282.307 67.7815V66.5467H281.747C281.125 66.5467 280.663 66.6424 280.362 66.8338C280.06 67.0253 279.909 67.3101 279.909 67.6882C279.909 67.985 279.998 68.2147 280.175 68.3774C280.357 68.5402 280.608 68.6215 280.929 68.6215ZM292.507 62.1456C292.962 62.1456 293.381 62.2222 293.764 62.3754L293.34 65.5631H291.919V64.1559C291.497 64.2325 291.124 64.4622 290.799 64.8451C290.473 65.228 290.217 65.7115 290.03 66.2954V68.4779H291.538V70H286.757V68.4779H287.762V63.8831H286.757V62.3754H289.492L289.908 64.0913C290.181 63.4356 290.528 62.9474 290.949 62.6267C291.375 62.306 291.895 62.1456 292.507 62.1456ZM299.635 59.1087L301.903 59.3456V70H299.893L299.778 69.16C299.548 69.4855 299.256 69.7487 298.902 69.9497C298.548 70.146 298.136 70.2441 297.667 70.2441C297.05 70.2441 296.531 70.079 296.109 69.7487C295.693 69.4137 295.382 68.9422 295.176 68.3344C294.97 67.7217 294.867 66.999 294.867 66.1662C294.867 65.386 294.989 64.6896 295.233 64.0769C295.482 63.4643 295.834 62.9856 296.289 62.641C296.748 62.2964 297.287 62.1241 297.904 62.1241C298.589 62.1241 299.165 62.3586 299.635 62.8277V59.1087ZM298.515 63.7826C298.103 63.7826 297.782 63.9764 297.552 64.3641C297.323 64.747 297.208 65.3525 297.208 66.1805C297.208 67.066 297.308 67.6882 297.509 68.0472C297.715 68.4014 298.007 68.5785 298.385 68.5785C298.864 68.5785 299.28 68.2841 299.635 67.6954V64.4072C299.467 64.2014 299.295 64.0458 299.118 63.9405C298.94 63.8352 298.739 63.7826 298.515 63.7826ZM307.214 62.1241C307.985 62.1241 308.647 62.2916 309.203 62.6267C309.763 62.9569 310.189 63.426 310.481 64.0338C310.773 64.6417 310.919 65.3525 310.919 66.1662C310.919 67.0133 310.77 67.7432 310.473 68.3559C310.181 68.9638 309.758 69.4304 309.203 69.7559C308.647 70.0814 307.985 70.2441 307.214 70.2441C306.439 70.2441 305.773 70.0838 305.218 69.7631C304.663 69.4424 304.239 68.9781 303.947 68.3703C303.655 67.7576 303.509 67.0277 303.509 66.1805C303.509 65.3716 303.655 64.6632 303.947 64.0554C304.244 63.4427 304.67 62.9689 305.225 62.6338C305.785 62.294 306.448 62.1241 307.214 62.1241ZM307.214 63.7969C306.75 63.7969 306.405 63.9884 306.18 64.3713C305.96 64.7542 305.85 65.3573 305.85 66.1805C305.85 67.0181 305.96 67.6284 306.18 68.0113C306.4 68.3894 306.745 68.5785 307.214 68.5785C307.683 68.5785 308.028 68.387 308.248 68.0041C308.468 67.6212 308.578 67.0085 308.578 66.1662C308.578 65.3477 308.466 64.7494 308.241 64.3713C308.02 63.9884 307.678 63.7969 307.214 63.7969ZM327.894 70H321.468V60.0492H323.823V68.1405H328.138L327.894 70ZM333.054 62.1241C333.824 62.1241 334.487 62.2916 335.043 62.6267C335.603 62.9569 336.028 63.426 336.32 64.0338C336.612 64.6417 336.758 65.3525 336.758 66.1662C336.758 67.0133 336.61 67.7432 336.313 68.3559C336.021 68.9638 335.598 69.4304 335.043 69.7559C334.487 70.0814 333.824 70.2441 333.054 70.2441C332.278 70.2441 331.613 70.0838 331.058 69.7631C330.503 69.4424 330.079 68.9781 329.787 68.3703C329.495 67.7576 329.349 67.0277 329.349 66.1805C329.349 65.3716 329.495 64.6632 329.787 64.0554C330.084 63.4427 330.51 62.9689 331.065 62.6338C331.625 62.294 332.288 62.1241 333.054 62.1241ZM333.054 63.7969C332.59 63.7969 332.245 63.9884 332.02 64.3713C331.8 64.7542 331.69 65.3573 331.69 66.1805C331.69 67.0181 331.8 67.6284 332.02 68.0113C332.24 68.3894 332.585 68.5785 333.054 68.5785C333.523 68.5785 333.867 68.387 334.088 68.0041C334.308 67.6212 334.418 67.0085 334.418 66.1662C334.418 65.3477 334.305 64.7494 334.08 64.3713C333.86 63.9884 333.518 63.7969 333.054 63.7969ZM331.015 59.9128L334.145 58.0103L335.028 59.719L331.639 61.0615L331.015 59.9128ZM342.586 62.1241C343.548 62.1241 344.252 62.4759 344.697 63.1795C345.147 63.8783 345.372 64.8738 345.372 66.1662C345.372 66.9559 345.254 67.6595 345.02 68.2769C344.79 68.8896 344.455 69.3706 344.015 69.72C343.574 70.0694 343.05 70.2441 342.442 70.2441C341.701 70.2441 341.097 69.9785 340.633 69.4472V72.9436L338.365 73.1805V62.3754H340.375L340.475 63.2297C340.772 62.8516 341.102 62.574 341.466 62.3969C341.83 62.215 342.203 62.1241 342.586 62.1241ZM341.882 63.7969C341.629 63.7969 341.399 63.8735 341.193 64.0267C340.992 64.175 340.806 64.3928 340.633 64.68V67.8964C340.796 68.1357 340.963 68.3104 341.136 68.4205C341.313 68.5258 341.519 68.5785 341.753 68.5785C342.17 68.5785 342.486 68.3894 342.701 68.0113C342.921 67.6332 343.031 67.0277 343.031 66.1949C343.031 65.5822 342.986 65.1012 342.895 64.7518C342.809 64.3976 342.682 64.1511 342.514 64.0123C342.347 63.8687 342.136 63.7969 341.882 63.7969ZM348.945 66.8482C349.017 67.4465 349.213 67.8868 349.534 68.1692C349.854 68.4516 350.268 68.5928 350.776 68.5928C351.422 68.5928 352.073 68.3822 352.729 67.961L353.64 69.1959C353.262 69.5214 352.815 69.7774 352.298 69.9641C351.786 70.1508 351.218 70.2441 350.596 70.2441C349.744 70.2441 349.022 70.0742 348.428 69.7344C347.835 69.3945 347.387 68.9207 347.085 68.3128C346.784 67.7002 346.633 66.9942 346.633 66.1949C346.633 65.4338 346.779 64.7446 347.071 64.1272C347.363 63.5097 347.789 63.0215 348.349 62.6626C348.909 62.3036 349.577 62.1241 350.352 62.1241C351.075 62.1241 351.704 62.2797 352.24 62.5908C352.781 62.9019 353.198 63.3518 353.49 63.9405C353.782 64.5292 353.928 65.228 353.928 66.0369C353.928 66.348 353.913 66.6185 353.884 66.8482H348.945ZM350.352 63.6462C349.936 63.6462 349.603 63.7969 349.354 64.0985C349.11 64.4 348.964 64.8619 348.916 65.4841H351.716C351.702 64.2588 351.247 63.6462 350.352 63.6462ZM362.045 63.9692L358.298 68.2841H362.117L361.902 70H355.62V68.399L359.403 64.0841H355.936V62.3754H362.045V63.9692ZM366.179 59.9703C366.179 59.7309 366.239 59.5132 366.358 59.3169C366.478 59.1159 366.641 58.9579 366.846 58.8431C367.052 58.7282 367.282 58.6708 367.536 58.6708C367.789 58.6708 368.017 58.7282 368.218 58.8431C368.423 58.9579 368.584 59.1159 368.699 59.3169C368.818 59.5132 368.878 59.7309 368.878 59.9703C368.878 60.1856 368.845 60.4058 368.778 60.6308C368.711 60.8509 368.593 61.1285 368.426 61.4636L367.399 63.5959H366.121L366.739 61.0544C366.365 60.7911 366.179 60.4297 366.179 59.9703Z" fill="#F7F39A"/>
<path d="M138.064 68.6215C138.451 68.6215 138.758 68.5617 138.983 68.4421C139.212 68.3176 139.327 68.1381 139.327 67.9036C139.327 67.7361 139.282 67.5997 139.191 67.4944C139.1 67.3843 138.93 67.2814 138.681 67.1856C138.432 67.0851 138.044 66.9631 137.518 66.8195C136.752 66.6137 136.166 66.3313 135.759 65.9723C135.357 65.6133 135.156 65.1156 135.156 64.479C135.156 64.0195 135.283 63.6126 135.536 63.2585C135.795 62.9043 136.173 62.6267 136.671 62.4256C137.169 62.2246 137.767 62.1241 138.466 62.1241C139.677 62.1241 140.706 62.4328 141.553 63.0503L140.648 64.3856C140.318 64.1846 139.971 64.0267 139.607 63.9118C139.248 63.7969 138.889 63.7395 138.53 63.7395C138.162 63.7395 137.886 63.7897 137.705 63.8903C137.528 63.986 137.439 64.132 137.439 64.3282C137.439 64.4622 137.484 64.5747 137.575 64.6656C137.671 64.7566 137.841 64.8499 138.085 64.9456C138.334 65.0414 138.719 65.1634 139.241 65.3118C139.791 65.465 140.239 65.6349 140.584 65.8215C140.928 66.0034 141.196 66.2475 141.388 66.5538C141.584 66.8554 141.682 67.2455 141.682 67.7241C141.682 68.2602 141.519 68.7197 141.194 69.1026C140.873 69.4807 140.44 69.7655 139.894 69.9569C139.349 70.1484 138.743 70.2441 138.078 70.2441C137.365 70.2441 136.723 70.1436 136.154 69.9426C135.584 69.7368 135.094 69.4544 134.682 69.0954L135.824 67.8174C136.139 68.0663 136.486 68.2626 136.865 68.4062C137.243 68.5497 137.642 68.6215 138.064 68.6215ZM145.586 66.8482C145.657 67.4465 145.854 67.8868 146.174 68.1692C146.495 68.4516 146.909 68.5928 147.416 68.5928C148.063 68.5928 148.713 68.3822 149.369 67.961L150.281 69.1959C149.903 69.5214 149.455 69.7774 148.938 69.9641C148.426 70.1508 147.859 70.2441 147.237 70.2441C146.385 70.2441 145.662 70.0742 145.069 69.7344C144.475 69.3945 144.028 68.9207 143.726 68.3128C143.425 67.7002 143.274 66.9942 143.274 66.1949C143.274 65.4338 143.42 64.7446 143.712 64.1272C144.004 63.5097 144.43 63.0215 144.99 62.6626C145.55 62.3036 146.217 62.1241 146.993 62.1241C147.716 62.1241 148.345 62.2797 148.881 62.5908C149.422 62.9019 149.838 63.3518 150.13 63.9405C150.422 64.5292 150.568 65.228 150.568 66.0369C150.568 66.348 150.554 66.6185 150.525 66.8482H145.586ZM146.993 63.6462C146.576 63.6462 146.244 63.7969 145.995 64.0985C145.751 64.4 145.605 64.8619 145.557 65.4841H148.357C148.343 64.2588 147.888 63.6462 146.993 63.6462ZM159.095 69.5549C158.775 69.7655 158.401 69.933 157.975 70.0574C157.554 70.1819 157.095 70.2441 156.597 70.2441C155.62 70.2441 154.886 69.9952 154.393 69.4974C153.9 68.9997 153.653 68.3009 153.653 67.401V63.9405H152.052V62.3754H153.653V60.7241L155.922 60.4513V62.3754H158.377L158.155 63.9405H155.922V67.401C155.922 67.7791 156.006 68.0496 156.173 68.2123C156.346 68.375 156.623 68.4564 157.006 68.4564C157.485 68.4564 157.93 68.3415 158.341 68.1118L159.095 69.5549ZM167.687 61.7292H163.753V64.3641H167.242V66.0513H163.753V70H161.391V60.0492H167.931L167.687 61.7292ZM171.727 67.5949C171.727 67.9491 171.792 68.2003 171.921 68.3487C172.05 68.4923 172.244 68.5641 172.502 68.5641C172.737 68.5641 172.971 68.4899 173.206 68.3415C173.44 68.1932 173.637 67.9921 173.795 67.7385V62.3754H176.063V70H174.082L173.981 69.1097C173.728 69.4735 173.393 69.7535 172.976 69.9497C172.56 70.146 172.115 70.2441 171.641 70.2441C170.918 70.2441 170.372 70.0359 170.004 69.6195C169.64 69.2031 169.458 68.6215 169.458 67.8749V62.3754H171.727V67.5949ZM182.049 67.6021C182.049 67.8988 182.133 68.1166 182.3 68.2554C182.473 68.3894 182.717 68.4564 183.033 68.4564C183.377 68.4564 183.736 68.3798 184.109 68.2267L184.655 69.7415C184.019 70.0766 183.284 70.2441 182.451 70.2441C181.556 70.2441 180.886 69.988 180.441 69.4759C180 68.959 179.78 68.241 179.78 67.3221V60.8964H177.533V59.3456H182.049V67.6021ZM190.662 67.6021C190.662 67.8988 190.746 68.1166 190.914 68.2554C191.086 68.3894 191.33 68.4564 191.646 68.4564C191.99 68.4564 192.349 68.3798 192.723 68.2267L193.268 69.7415C192.632 70.0766 191.897 70.2441 191.064 70.2441C190.169 70.2441 189.499 69.988 189.054 69.4759C188.614 68.959 188.394 68.241 188.394 67.3221V60.8964H186.146V59.3456H190.662V67.6021ZM195.298 70V62.3754H197.28L197.438 63.2585C197.782 62.8708 198.144 62.586 198.522 62.4041C198.9 62.2174 199.328 62.1241 199.807 62.1241C200.463 62.1241 200.975 62.3251 201.343 62.7272C201.717 63.1244 201.903 63.6821 201.903 64.4V70H199.635V65.0533C199.635 64.7374 199.611 64.4885 199.563 64.3067C199.52 64.1248 199.445 63.9956 199.34 63.919C199.235 63.8376 199.089 63.7969 198.902 63.7969C198.672 63.7969 198.447 63.8711 198.227 64.0195C198.012 64.1631 197.792 64.3785 197.567 64.6656V70H195.298ZM210.33 67.8031C210.33 68.0855 210.368 68.2937 210.445 68.4277C210.521 68.5569 210.651 68.655 210.832 68.7221L210.366 70.2154C209.901 70.1723 209.516 70.0718 209.21 69.9138C208.908 69.7511 208.671 69.5166 208.499 69.2103C208.217 69.5501 207.851 69.8085 207.401 69.9856C206.955 70.1579 206.484 70.2441 205.986 70.2441C205.469 70.2441 205.015 70.1436 204.622 69.9426C204.234 69.7368 203.935 69.4544 203.725 69.0954C203.514 68.7316 203.409 68.3152 203.409 67.8462C203.409 67.3005 203.555 66.8338 203.847 66.4462C204.139 66.0585 204.562 65.7641 205.118 65.5631C205.673 65.3573 206.34 65.2544 207.121 65.2544H208.147V64.9672C208.147 64.187 207.645 63.7969 206.64 63.7969C206.386 63.7969 206.065 63.8328 205.678 63.9046C205.295 63.9764 204.919 64.0745 204.55 64.199L204.026 62.6913C204.505 62.5094 205.01 62.3706 205.541 62.2749C206.072 62.1744 206.558 62.1241 206.999 62.1241C208.119 62.1241 208.954 62.3515 209.504 62.8062C210.055 63.2609 210.33 63.9309 210.33 64.8164V67.8031ZM206.769 68.6215C207.027 68.6215 207.288 68.5474 207.551 68.399C207.815 68.2458 208.013 68.04 208.147 67.7815V66.5467H207.587C206.965 66.5467 206.503 66.6424 206.202 66.8338C205.9 67.0253 205.749 67.3101 205.749 67.6882C205.749 67.985 205.838 68.2147 206.015 68.3774C206.197 68.5402 206.448 68.6215 206.769 68.6215ZM218.161 62.1241C218.706 62.1241 219.108 62.3012 219.367 62.6554C219.625 63.0096 219.754 63.5768 219.754 64.3569V70H217.809V64.6154C217.809 64.3426 217.782 64.1535 217.73 64.0482C217.677 63.9381 217.577 63.8831 217.428 63.8831C217.299 63.8831 217.17 63.9214 217.041 63.9979C216.916 64.0697 216.782 64.1966 216.639 64.3785V70H215.045V64.6154C215.045 64.3426 215.018 64.1535 214.966 64.0482C214.913 63.9381 214.813 63.8831 214.664 63.8831C214.535 63.8831 214.406 63.9214 214.276 63.9979C214.152 64.0697 214.018 64.1966 213.874 64.3785V70H211.9V62.3754H213.566L213.716 63.1149C213.965 62.775 214.212 62.5262 214.456 62.3682C214.7 62.2055 214.985 62.1241 215.31 62.1241C215.607 62.1241 215.854 62.1983 216.05 62.3467C216.251 62.495 216.394 62.7224 216.481 63.0287C217.002 62.4256 217.562 62.1241 218.161 62.1241ZM223.105 66.8482C223.177 67.4465 223.373 67.8868 223.694 68.1692C224.015 68.4516 224.429 68.5928 224.936 68.5928C225.582 68.5928 226.233 68.3822 226.889 67.961L227.801 69.1959C227.422 69.5214 226.975 69.7774 226.458 69.9641C225.946 70.1508 225.379 70.2441 224.756 70.2441C223.904 70.2441 223.182 70.0742 222.588 69.7344C221.995 69.3945 221.547 68.9207 221.246 68.3128C220.944 67.7002 220.793 66.9942 220.793 66.1949C220.793 65.4338 220.939 64.7446 221.231 64.1272C221.523 63.5097 221.949 63.0215 222.509 62.6626C223.069 62.3036 223.737 62.1241 224.512 62.1241C225.235 62.1241 225.864 62.2797 226.401 62.5908C226.941 62.9019 227.358 63.3518 227.65 63.9405C227.942 64.5292 228.088 65.228 228.088 66.0369C228.088 66.348 228.073 66.6185 228.045 66.8482H223.105ZM224.512 63.6462C224.096 63.6462 223.763 63.7969 223.514 64.0985C223.27 64.4 223.124 64.8619 223.076 65.4841H225.876C225.862 64.2588 225.407 63.6462 224.512 63.6462ZM232.487 64.9744C232.487 65.7785 232.57 66.4964 232.738 67.1282C232.905 67.76 233.185 68.3846 233.578 69.0021C233.97 69.6195 234.516 70.3087 235.215 71.0697L233.894 72.2615C233.099 71.5771 232.429 70.8735 231.884 70.1508C231.343 69.428 230.924 68.6407 230.627 67.7887C230.335 66.932 230.189 65.9938 230.189 64.9744C230.189 63.9549 230.335 63.0191 230.627 62.1672C230.924 61.3104 231.343 60.5207 231.884 59.7979C232.429 59.0752 233.099 58.3716 233.894 57.6872L235.215 58.879C234.554 59.5969 234.025 60.2694 233.628 60.8964C233.236 61.5186 232.946 62.1576 232.759 62.8133C232.578 63.4643 232.487 64.1846 232.487 64.9744Z" fill="#FFBCD1"/>
<path d="M129.707 68.6431C129.707 68.3559 129.778 68.0903 129.922 67.8462C130.066 67.6021 130.259 67.4082 130.504 67.2646C130.752 67.1162 131.021 67.0421 131.308 67.0421C131.595 67.0421 131.861 67.1162 132.105 67.2646C132.354 67.4082 132.55 67.6021 132.693 67.8462C132.837 68.0903 132.909 68.3559 132.909 68.6431C132.909 68.9303 132.837 69.1959 132.693 69.44C132.55 69.6841 132.354 69.8779 132.105 70.0215C131.861 70.1699 131.595 70.2441 131.308 70.2441C131.021 70.2441 130.752 70.1699 130.504 70.0215C130.259 69.8779 130.066 69.6841 129.922 69.44C129.778 69.1959 129.707 68.9303 129.707 68.6431Z" fill="#D5EDED"/>
<path d="M76.2779 63.2872C76.2779 64.0386 76.1152 64.6704 75.7897 65.1826C75.4643 65.6899 75.0048 66.068 74.4113 66.3169C73.8226 66.5658 73.1285 66.6903 72.3292 66.6903H71.2523V70H68.8974V60.0492H72.0277C73.3966 60.0492 74.4472 60.3221 75.1795 60.8677C75.9118 61.4085 76.2779 62.215 76.2779 63.2872ZM73.8513 63.2944C73.8513 62.7631 73.7029 62.3706 73.4062 62.1169C73.1094 61.8585 72.6595 61.7292 72.0564 61.7292H71.2523V64.9815H72.1785C72.7145 64.9815 73.1262 64.8427 73.4133 64.5651C73.7053 64.2875 73.8513 63.8639 73.8513 63.2944ZM83.441 62.1456C83.8957 62.1456 84.3145 62.2222 84.6974 62.3754L84.2738 65.5631H82.8523V64.1559C82.4311 64.2325 82.0577 64.4622 81.7323 64.8451C81.4068 65.228 81.1507 65.7115 80.9641 66.2954V68.4779H82.4717V70H77.6902V68.4779H78.6953V63.8831H77.6902V62.3754H80.4256L80.842 64.0913C81.1148 63.4356 81.4618 62.9474 81.883 62.6267C82.309 62.306 82.8283 62.1456 83.441 62.1456ZM89.5343 62.1241C90.3049 62.1241 90.9678 62.2916 91.523 62.6267C92.083 62.9569 92.509 63.426 92.8009 64.0338C93.0929 64.6417 93.2389 65.3525 93.2389 66.1662C93.2389 67.0133 93.0905 67.7432 92.7937 68.3559C92.5018 68.9638 92.0782 69.4304 91.523 69.7559C90.9678 70.0814 90.3049 70.2441 89.5343 70.2441C88.7589 70.2441 88.0936 70.0838 87.5384 69.7631C86.9831 69.4424 86.5596 68.9781 86.2676 68.3703C85.9756 67.7576 85.8296 67.0277 85.8296 66.1805C85.8296 65.3716 85.9756 64.6632 86.2676 64.0554C86.5643 63.4427 86.9903 62.9689 87.5455 62.6338C88.1055 62.294 88.7684 62.1241 89.5343 62.1241ZM89.5343 63.7969C89.07 63.7969 88.7254 63.9884 88.5004 64.3713C88.2802 64.7542 88.1702 65.3573 88.1702 66.1805C88.1702 67.0181 88.2802 67.6284 88.5004 68.0113C88.7206 68.3894 89.0652 68.5785 89.5343 68.5785C90.0033 68.5785 90.3479 68.387 90.5681 68.0041C90.7883 67.6212 90.8984 67.0085 90.8984 66.1662C90.8984 65.3477 90.7859 64.7494 90.5609 64.3713C90.3408 63.9884 89.9985 63.7969 89.5343 63.7969ZM99.6983 59.1087C100.689 59.1087 101.56 59.2691 102.312 59.5897L101.687 61.0687C101.18 60.8773 100.634 60.7815 100.05 60.7815C99.6002 60.7815 99.2771 60.8629 99.0809 61.0256C98.8894 61.1884 98.7937 61.4588 98.7937 61.8369V62.8564H101.278L101.027 64.4287H98.7937V70H96.5393V64.4287H94.9383V62.8564H96.5393V61.7508C96.5393 61.2434 96.659 60.7911 96.8983 60.3938C97.1424 59.9918 97.5014 59.6783 97.9752 59.4533C98.4539 59.2236 99.0282 59.1087 99.6983 59.1087ZM106.746 58.7426C107.005 58.7426 107.235 58.8 107.436 58.9149C107.637 59.025 107.795 59.1781 107.91 59.3744C108.024 59.5658 108.082 59.7812 108.082 60.0205C108.082 60.2598 108.024 60.4776 107.91 60.6738C107.795 60.8701 107.634 61.0256 107.429 61.1405C107.227 61.2506 107 61.3056 106.746 61.3056C106.488 61.3056 106.256 61.2506 106.05 61.1405C105.844 61.0256 105.684 60.8701 105.569 60.6738C105.454 60.4776 105.397 60.2598 105.397 60.0205C105.397 59.7812 105.454 59.5658 105.569 59.3744C105.684 59.1781 105.844 59.025 106.05 58.9149C106.256 58.8 106.488 58.7426 106.746 58.7426ZM103.76 62.8564H108.118V68.4492H110.056V70H103.688V68.4492H105.849V64.4287H103.76V62.8564ZM116.049 67.6021C116.049 67.8988 116.133 68.1166 116.3 68.2554C116.473 68.3894 116.717 68.4564 117.033 68.4564C117.377 68.4564 117.736 68.3798 118.109 68.2267L118.655 69.7415C118.019 70.0766 117.284 70.2441 116.451 70.2441C115.556 70.2441 114.886 69.988 114.441 69.4759C114 68.959 113.78 68.241 113.78 67.3221V60.8964H111.533V59.3456H116.049V67.6021ZM122.652 66.8482C122.724 67.4465 122.92 67.8868 123.241 68.1692C123.561 68.4516 123.975 68.5928 124.483 68.5928C125.129 68.5928 125.78 68.3822 126.436 67.961L127.347 69.1959C126.969 69.5214 126.522 69.7774 126.005 69.9641C125.493 70.1508 124.925 70.2441 124.303 70.2441C123.451 70.2441 122.729 70.0742 122.135 69.7344C121.542 69.3945 121.094 68.9207 120.793 68.3128C120.491 67.7002 120.34 66.9942 120.34 66.1949C120.34 65.4338 120.486 64.7446 120.778 64.1272C121.07 63.5097 121.496 63.0215 122.056 62.6626C122.616 62.3036 123.284 62.1241 124.059 62.1241C124.782 62.1241 125.411 62.2797 125.947 62.5908C126.488 62.9019 126.905 63.3518 127.197 63.9405C127.489 64.5292 127.635 65.228 127.635 66.0369C127.635 66.348 127.62 66.6185 127.591 66.8482H122.652ZM124.059 63.6462C123.643 63.6462 123.31 63.7969 123.061 64.0985C122.817 64.4 122.671 64.8619 122.623 65.4841H125.423C125.409 64.2588 124.954 63.6462 124.059 63.6462Z" fill="#FF5677"/>
<path d="M36.0523 42.0492V50.2841H37.9118V52H31.4431V50.2841H33.841V44.2821L31.7949 45.56L30.8328 44.0021L34.0421 42.0492H36.0523ZM42.8635 41.7979C43.6581 41.7979 44.3282 41.9631 44.8738 42.2933C45.4242 42.6236 45.8358 43.0879 46.1087 43.6862C46.3863 44.2797 46.5251 44.9737 46.5251 45.7682C46.5251 47.0414 46.3097 48.1183 45.8789 48.999C45.4482 49.8797 44.7876 50.6 43.8974 51.16C43.0119 51.7152 41.8656 52.1388 40.4584 52.4308L39.9917 50.8369C41.1788 50.5354 42.1025 50.1405 42.763 49.6523C43.4235 49.1593 43.8639 48.5251 44.0841 47.7497C43.7777 48.0178 43.4618 48.2212 43.1364 48.36C42.8157 48.494 42.4543 48.561 42.0523 48.561C41.5305 48.561 41.0543 48.4294 40.6235 48.1662C40.1976 47.8981 39.8601 47.5224 39.6112 47.039C39.3623 46.5556 39.2379 46.0003 39.2379 45.3733C39.2379 44.6697 39.3958 44.0475 39.7117 43.5067C40.0276 42.9658 40.4608 42.547 41.0112 42.2503C41.5617 41.9487 42.1791 41.7979 42.8635 41.7979ZM41.521 45.3087C41.521 45.8879 41.6335 46.3115 41.8584 46.5795C42.0834 46.8427 42.3825 46.9744 42.7558 46.9744C43.0239 46.9744 43.2704 46.9265 43.4953 46.8308C43.7251 46.735 43.9548 46.5891 44.1846 46.3928V46.1415C44.1846 45.4906 44.1463 44.9713 44.0697 44.5836C43.9979 44.1911 43.8663 43.8991 43.6748 43.7077C43.4834 43.5115 43.2082 43.4133 42.8492 43.4133C42.428 43.4133 42.1001 43.5713 41.8656 43.8872C41.6358 44.2031 41.521 44.6769 41.521 45.3087ZM51.4768 41.7979C52.2713 41.7979 52.9414 41.9631 53.4871 42.2933C54.0375 42.6236 54.4491 43.0879 54.7219 43.6862C54.9996 44.2797 55.1384 44.9737 55.1384 45.7682C55.1384 47.0414 54.923 48.1183 54.4922 48.999C54.0614 49.8797 53.4009 50.6 52.5107 51.16C51.6252 51.7152 50.4789 52.1388 49.0717 52.4308L48.605 50.8369C49.792 50.5354 50.7158 50.1405 51.3763 49.6523C52.0368 49.1593 52.4772 48.5251 52.6973 47.7497C52.391 48.0178 52.0751 48.2212 51.7496 48.36C51.429 48.494 51.0676 48.561 50.6655 48.561C50.1438 48.561 49.6676 48.4294 49.2368 48.1662C48.8108 47.8981 48.4734 47.5224 48.2245 47.039C47.9756 46.5556 47.8512 46.0003 47.8512 45.3733C47.8512 44.6697 48.0091 44.0475 48.325 43.5067C48.6409 42.9658 49.0741 42.547 49.6245 42.2503C50.1749 41.9487 50.7924 41.7979 51.4768 41.7979ZM50.1343 45.3087C50.1343 45.8879 50.2467 46.3115 50.4717 46.5795C50.6966 46.8427 50.9958 46.9744 51.3691 46.9744C51.6372 46.9744 51.8837 46.9265 52.1086 46.8308C52.3384 46.735 52.5681 46.5891 52.7978 46.3928V46.1415C52.7978 45.4906 52.7596 44.9713 52.683 44.5836C52.6112 44.1911 52.4796 43.8991 52.2881 43.7077C52.0966 43.5115 51.8214 43.4133 51.4625 43.4133C51.0413 43.4133 50.7134 43.5713 50.4789 43.8872C50.2491 44.2031 50.1343 44.6769 50.1343 45.3087ZM33.9631 59.7979C34.6906 59.7979 35.3128 59.9272 35.8297 60.1856C36.3467 60.4441 36.7368 60.7887 37 61.2195C37.2632 61.6503 37.3949 62.1265 37.3949 62.6482C37.3949 63.1891 37.2704 63.7156 37.0215 64.2277C36.7726 64.7398 36.3634 65.3094 35.7938 65.9364C35.2243 66.5586 34.4178 67.3364 33.3744 68.2697H37.6246L37.3805 70H30.7682V68.3918C31.9361 67.2622 32.8168 66.3791 33.4103 65.7426C34.0038 65.1012 34.4297 64.5579 34.6882 64.1128C34.9515 63.6677 35.0831 63.2465 35.0831 62.8492C35.0831 62.4424 34.9658 62.1241 34.7313 61.8944C34.4968 61.6598 34.1689 61.5426 33.7477 61.5426C33.3744 61.5426 33.0465 61.6215 32.7641 61.7795C32.4865 61.9374 32.2185 62.1935 31.96 62.5477L30.5672 61.4995C30.9597 60.9538 31.4311 60.535 31.9815 60.2431C32.5368 59.9463 33.1973 59.7979 33.9631 59.7979ZM42.921 59.7979C43.7059 59.7979 44.3664 60.0038 44.9025 60.4154C45.4386 60.8222 45.8406 61.4157 46.1087 62.1959C46.3815 62.9713 46.5179 63.907 46.5179 65.0031C46.5179 66.1039 46.3815 67.0468 46.1087 67.8318C45.8406 68.612 45.4386 69.2103 44.9025 69.6267C44.3664 70.0383 43.7059 70.2441 42.921 70.2441C42.136 70.2441 41.4731 70.0383 40.9323 69.6267C40.3962 69.2103 39.9941 68.612 39.7261 67.8318C39.4581 67.0468 39.3241 66.1039 39.3241 65.0031C39.3241 63.907 39.4581 62.9713 39.7261 62.1959C39.9941 61.4157 40.3962 60.8222 40.9323 60.4154C41.4683 60.0038 42.1312 59.7979 42.921 59.7979ZM42.921 61.4421C42.5764 61.4421 42.2964 61.5617 42.081 61.801C41.8704 62.0356 41.7124 62.4137 41.6071 62.9354C41.5066 63.4571 41.4564 64.1463 41.4564 65.0031C41.4564 65.8311 41.4851 66.4964 41.5425 66.999L43.9692 61.9231C43.8591 61.746 43.7203 61.6215 43.5528 61.5497C43.3852 61.4779 43.1746 61.4421 42.921 61.4421ZM42.921 68.6072C43.2656 68.6072 43.5432 68.4923 43.7538 68.2626C43.9644 68.028 44.1199 67.6475 44.2205 67.121C44.321 66.5945 44.3712 65.8885 44.3712 65.0031C44.3712 64.5149 44.3593 64.0506 44.3353 63.6103L42.0451 68.3415C42.1504 68.4373 42.2724 68.5067 42.4112 68.5497C42.5548 68.588 42.7247 68.6072 42.921 68.6072ZM51.5343 59.7979C52.3192 59.7979 52.9797 60.0038 53.5158 60.4154C54.0519 60.8222 54.4539 61.4157 54.7219 62.1959C54.9948 62.9713 55.1312 63.907 55.1312 65.0031C55.1312 66.1039 54.9948 67.0468 54.7219 67.8318C54.4539 68.612 54.0519 69.2103 53.5158 69.6267C52.9797 70.0383 52.3192 70.2441 51.5343 70.2441C50.7493 70.2441 50.0864 70.0383 49.5455 69.6267C49.0095 69.2103 48.6074 68.612 48.3394 67.8318C48.0713 67.0468 47.9373 66.1039 47.9373 65.0031C47.9373 63.907 48.0713 62.9713 48.3394 62.1959C48.6074 61.4157 49.0095 60.8222 49.5455 60.4154C50.0816 60.0038 50.7445 59.7979 51.5343 59.7979ZM51.5343 61.4421C51.1896 61.4421 50.9096 61.5617 50.6943 61.801C50.4837 62.0356 50.3257 62.4137 50.2204 62.9354C50.1199 63.4571 50.0696 64.1463 50.0696 65.0031C50.0696 65.8311 50.0984 66.4964 50.1558 66.999L52.5825 61.9231C52.4724 61.746 52.3336 61.6215 52.166 61.5497C51.9985 61.4779 51.7879 61.4421 51.5343 61.4421ZM51.5343 68.6072C51.8789 68.6072 52.1565 68.4923 52.3671 68.2626C52.5777 68.028 52.7332 67.6475 52.8337 67.121C52.9343 66.5945 52.9845 65.8885 52.9845 65.0031C52.9845 64.5149 52.9725 64.0506 52.9486 63.6103L50.6584 68.3415C50.7637 68.4373 50.8857 68.5067 51.0245 68.5497C51.1681 68.588 51.338 68.6072 51.5343 68.6072ZM33.9631 77.7979C34.6906 77.7979 35.3128 77.9272 35.8297 78.1856C36.3467 78.4441 36.7368 78.7887 37 79.2195C37.2632 79.6503 37.3949 80.1265 37.3949 80.6482C37.3949 81.1891 37.2704 81.7156 37.0215 82.2277C36.7726 82.7398 36.3634 83.3094 35.7938 83.9364C35.2243 84.5586 34.4178 85.3364 33.3744 86.2697H37.6246L37.3805 88H30.7682V86.3918C31.9361 85.2622 32.8168 84.3791 33.4103 83.7426C34.0038 83.1012 34.4297 82.5579 34.6882 82.1128C34.9515 81.6677 35.0831 81.2465 35.0831 80.8492C35.0831 80.4424 34.9658 80.1241 34.7313 79.8944C34.4968 79.6598 34.1689 79.5426 33.7477 79.5426C33.3744 79.5426 33.0465 79.6215 32.7641 79.7795C32.4865 79.9374 32.2185 80.1935 31.96 80.5477L30.5672 79.4995C30.9597 78.9538 31.4311 78.535 31.9815 78.2431C32.5368 77.9463 33.1973 77.7979 33.9631 77.7979ZM42.921 77.7979C43.7059 77.7979 44.3664 78.0038 44.9025 78.4154C45.4386 78.8222 45.8406 79.4157 46.1087 80.1959C46.3815 80.9713 46.5179 81.907 46.5179 83.0031C46.5179 84.1039 46.3815 85.0468 46.1087 85.8318C45.8406 86.612 45.4386 87.2103 44.9025 87.6267C44.3664 88.0383 43.7059 88.2441 42.921 88.2441C42.136 88.2441 41.4731 88.0383 40.9323 87.6267C40.3962 87.2103 39.9941 86.612 39.7261 85.8318C39.4581 85.0468 39.3241 84.1039 39.3241 83.0031C39.3241 81.907 39.4581 80.9713 39.7261 80.1959C39.9941 79.4157 40.3962 78.8222 40.9323 78.4154C41.4683 78.0038 42.1312 77.7979 42.921 77.7979ZM42.921 79.4421C42.5764 79.4421 42.2964 79.5617 42.081 79.801C41.8704 80.0356 41.7124 80.4137 41.6071 80.9354C41.5066 81.4571 41.4564 82.1463 41.4564 83.0031C41.4564 83.8311 41.4851 84.4964 41.5425 84.999L43.9692 79.9231C43.8591 79.746 43.7203 79.6215 43.5528 79.5497C43.3852 79.4779 43.1746 79.4421 42.921 79.4421ZM42.921 86.6072C43.2656 86.6072 43.5432 86.4923 43.7538 86.2626C43.9644 86.028 44.1199 85.6475 44.2205 85.121C44.321 84.5945 44.3712 83.8885 44.3712 83.0031C44.3712 82.5149 44.3593 82.0506 44.3353 81.6103L42.0451 86.3415C42.1504 86.4373 42.2724 86.5067 42.4112 86.5497C42.5548 86.588 42.7247 86.6072 42.921 86.6072ZM53.2789 78.0492V86.2841H55.1384V88H48.6696V86.2841H51.0676V80.2821L49.0214 81.56L48.0594 80.0021L51.2686 78.0492H53.2789ZM33.9631 95.7979C34.6906 95.7979 35.3128 95.9272 35.8297 96.1856C36.3467 96.4441 36.7368 96.7887 37 97.2195C37.2632 97.6503 37.3949 98.1265 37.3949 98.6482C37.3949 99.1891 37.2704 99.7156 37.0215 100.228C36.7726 100.74 36.3634 101.309 35.7938 101.936C35.2243 102.559 34.4178 103.336 33.3744 104.27H37.6246L37.3805 106H30.7682V104.392C31.9361 103.262 32.8168 102.379 33.4103 101.743C34.0038 101.101 34.4297 100.558 34.6882 100.113C34.9515 99.6677 35.0831 99.2465 35.0831 98.8492C35.0831 98.4424 34.9658 98.1241 34.7313 97.8944C34.4968 97.6598 34.1689 97.5426 33.7477 97.5426C33.3744 97.5426 33.0465 97.6215 32.7641 97.7795C32.4865 97.9374 32.2185 98.1935 31.96 98.5477L30.5672 97.4995C30.9597 96.9538 31.4311 96.535 31.9815 96.2431C32.5368 95.9463 33.1973 95.7979 33.9631 95.7979ZM42.921 95.7979C43.7059 95.7979 44.3664 96.0038 44.9025 96.4154C45.4386 96.8222 45.8406 97.4157 46.1087 98.1959C46.3815 98.9713 46.5179 99.907 46.5179 101.003C46.5179 102.104 46.3815 103.047 46.1087 103.832C45.8406 104.612 45.4386 105.21 44.9025 105.627C44.3664 106.038 43.7059 106.244 42.921 106.244C42.136 106.244 41.4731 106.038 40.9323 105.627C40.3962 105.21 39.9941 104.612 39.7261 103.832C39.4581 103.047 39.3241 102.104 39.3241 101.003C39.3241 99.907 39.4581 98.9713 39.7261 98.1959C39.9941 97.4157 40.3962 96.8222 40.9323 96.4154C41.4683 96.0038 42.1312 95.7979 42.921 95.7979ZM42.921 97.4421C42.5764 97.4421 42.2964 97.5617 42.081 97.801C41.8704 98.0356 41.7124 98.4137 41.6071 98.9354C41.5066 99.4571 41.4564 100.146 41.4564 101.003C41.4564 101.831 41.4851 102.496 41.5425 102.999L43.9692 97.9231C43.8591 97.746 43.7203 97.6215 43.5528 97.5497C43.3852 97.4779 43.1746 97.4421 42.921 97.4421ZM42.921 104.607C43.2656 104.607 43.5432 104.492 43.7538 104.263C43.9644 104.028 44.1199 103.648 44.2205 103.121C44.321 102.595 44.3712 101.889 44.3712 101.003C44.3712 100.515 44.3593 100.051 44.3353 99.6103L42.0451 104.342C42.1504 104.437 42.2724 104.507 42.4112 104.55C42.5548 104.588 42.7247 104.607 42.921 104.607ZM51.1896 95.7979C51.9172 95.7979 52.5394 95.9272 53.0563 96.1856C53.5732 96.4441 53.9633 96.7887 54.2266 97.2195C54.4898 97.6503 54.6214 98.1265 54.6214 98.6482C54.6214 99.1891 54.497 99.7156 54.2481 100.228C53.9992 100.74 53.59 101.309 53.0204 101.936C52.4508 102.559 51.6443 103.336 50.6009 104.27H54.8512L54.6071 106H47.9948V104.392C49.1626 103.262 50.0433 102.379 50.6368 101.743C51.2303 101.101 51.6563 100.558 51.9148 100.113C52.178 99.6677 52.3096 99.2465 52.3096 98.8492C52.3096 98.4424 52.1924 98.1241 51.9578 97.8944C51.7233 97.6598 51.3955 97.5426 50.9743 97.5426C50.6009 97.5426 50.2731 97.6215 49.9907 97.7795C49.7131 97.9374 49.445 98.1935 49.1866 98.5477L47.7937 97.4995C48.1862 96.9538 48.6577 96.535 49.2081 96.2431C49.7633 95.9463 50.4238 95.7979 51.1896 95.7979Z" fill="#767594"/>
<circle cx="26.5" cy="83.5" r="1.5" fill="#FF5677"/>
<circle cx="61" cy="19" r="6" fill="#A3DE83"/>
<circle cx="43" cy="19" r="6" fill="#F7F39A"/>
<circle cx="25" cy="19" r="6" fill="#FF5677"/>
<g clip-path="url(#clip1_55_213)">
<rect width="595" height="36" transform="translate(0 130)" fill="white"/>
<line y1="165.625" x2="595" y2="165.625" stroke="#F3F3F3" stroke-width="0.75"/>
<rect x="174" y="138" width="248" height="21" rx="3" fill="#F2F2F2"/>
<rect x="253" y="145" width="106" height="8" fill="#C4C4C4"/>
<path d="M243.999 148.375H243.532V146.969C243.532 145.332 242.207 144 240.579 144C238.95 144 237.625 145.332 237.625 146.969V148.375H237.158C236.643 148.375 236.226 148.795 236.226 149.312V153.062C236.226 153.58 236.643 154 237.158 154H243.999C244.514 154 244.932 153.58 244.932 153.062V149.312C244.932 148.795 244.514 148.375 243.999 148.375ZM241.978 148.375H239.179V146.969C239.179 146.193 239.807 145.562 240.579 145.562C241.35 145.562 241.978 146.193 241.978 146.969V148.375Z" fill="#5AB382"/>
<path d="M408.944 148.382L411.819 146.358C411.915 146.291 411.938 146.159 411.871 146.063L409.857 143.173C409.791 143.078 409.66 143.054 409.565 143.121L408.876 143.606C408.78 143.673 408.757 143.805 408.824 143.9L409.609 145.027C408.441 144.756 407.167 144.969 406.111 145.724C404.156 147.121 403.695 149.824 405.076 151.796C406.454 153.766 409.16 154.243 411.123 152.861C412.043 152.214 412.637 151.273 412.868 150.252C412.895 150.134 412.818 150.017 412.7 149.996L411.871 149.849C411.761 149.83 411.656 149.899 411.63 150.008C411.46 150.717 411.042 151.37 410.399 151.822C409.003 152.805 407.082 152.465 406.104 151.061C405.126 149.658 405.465 147.727 406.861 146.744C407.701 146.153 408.731 146.04 409.631 146.35L408.22 147.343C408.125 147.41 408.102 147.542 408.168 147.637L408.651 148.33C408.717 148.425 408.849 148.449 408.944 148.382V148.382Z" fill="#C4C4C4"/>
<path d="M570.83 147.031C571.913 147.031 572.789 147.912 572.789 149C572.789 150.088 571.913 150.969 570.83 150.969C569.747 150.969 568.871 150.088 568.871 149C568.871 147.912 569.747 147.031 570.83 147.031ZM568.871 144.188C568.871 145.276 569.747 146.156 570.83 146.156C571.913 146.156 572.789 145.276 572.789 144.188C572.789 143.099 571.913 142.219 570.83 142.219C569.747 142.219 568.871 143.099 568.871 144.188ZM568.871 153.812C568.871 154.901 569.747 155.781 570.83 155.781C571.913 155.781 572.789 154.901 572.789 153.812C572.789 152.724 571.913 151.844 570.83 151.844C569.747 151.844 568.871 152.724 568.871 153.812Z" fill="#C4C4C4"/>
</g>
<rect width="595" height="257" transform="translate(0 166)" fill="white"/>
<rect y="166" width="595" height="28" fill="white"/>
<rect x="20" y="177" width="10" height="1" fill="#343352"/>
<rect x="18" y="179.5" width="12" height="1" fill="#343352"/>
<rect x="22" y="182" width="8" height="1" fill="#343352"/>
<rect x="18" y="194" width="559" height="81" fill="#E7FFFF" fill-opacity="0.3"/>
<rect x="18" y="194" width="280" height="81" fill="#E7FFFF"/>
<path d="M288.598 225.283V227.656H282.032V225.283H288.598ZM283.061 220.203V233H279.976V220.203H283.061ZM290.672 220.203V233H287.596V220.203H290.672ZM301.438 230.627V233H294.618V230.627H301.438ZM295.717 220.203V233H292.632V220.203H295.717ZM300.56 225.283V227.577H294.618V225.283H300.56ZM301.465 220.203V222.585H294.618V220.203H301.465ZM288.431 245.627V248H281.962V245.627H288.431ZM283.061 235.203V248H279.976V235.203H283.061ZM298.187 245.627V248H291.718V245.627H298.187ZM292.816 235.203V248H289.731V235.203H292.816ZM309.753 241.347V241.865C309.753 242.844 309.615 243.723 309.34 244.502C309.07 245.275 308.687 245.938 308.188 246.488C307.69 247.033 307.102 247.452 306.422 247.745C305.742 248.032 304.992 248.176 304.172 248.176C303.346 248.176 302.59 248.032 301.904 247.745C301.225 247.452 300.633 247.033 300.129 246.488C299.631 245.938 299.244 245.275 298.969 244.502C298.699 243.723 298.564 242.844 298.564 241.865V241.347C298.564 240.368 298.699 239.489 298.969 238.71C299.244 237.931 299.628 237.269 300.12 236.724C300.618 236.173 301.207 235.754 301.887 235.467C302.572 235.174 303.328 235.027 304.154 235.027C304.975 235.027 305.725 235.174 306.404 235.467C307.09 235.754 307.682 236.173 308.18 236.724C308.678 237.269 309.064 237.931 309.34 238.71C309.615 239.489 309.753 240.368 309.753 241.347ZM306.624 241.865V241.329C306.624 240.696 306.568 240.14 306.457 239.659C306.352 239.173 306.193 238.766 305.982 238.438C305.771 238.109 305.511 237.863 305.2 237.699C304.896 237.529 304.547 237.444 304.154 237.444C303.744 237.444 303.387 237.529 303.082 237.699C302.777 237.863 302.522 238.109 302.317 238.438C302.112 238.766 301.957 239.173 301.852 239.659C301.752 240.14 301.702 240.696 301.702 241.329V241.865C301.702 242.492 301.752 243.049 301.852 243.535C301.957 244.016 302.112 244.423 302.317 244.757C302.528 245.091 302.786 245.343 303.091 245.513C303.401 245.683 303.762 245.768 304.172 245.768C304.564 245.768 304.913 245.683 305.218 245.513C305.522 245.343 305.777 245.091 305.982 244.757C306.193 244.423 306.352 244.016 306.457 243.535C306.568 243.049 306.624 242.492 306.624 241.865Z" fill="#343352"/>
<path d="M311.304 246.89C311.304 246.469 311.456 246.117 311.761 245.836C312.065 245.549 312.458 245.405 312.938 245.405C313.425 245.405 313.817 245.549 314.116 245.836C314.421 246.117 314.573 246.469 314.573 246.89C314.573 247.312 314.421 247.667 314.116 247.954C313.817 248.235 313.425 248.376 312.938 248.376C312.458 248.376 312.065 248.235 311.761 247.954C311.456 247.667 311.304 247.312 311.304 246.89Z" fill="#FF5677"/>
</g>
<defs>
<clipPath id="clip0_55_213">
<rect width="595" height="275" fill="white"/>
</clipPath>
<clipPath id="clip1_55_213">
<rect width="595" height="36" fill="white" transform="translate(0 130)"/>
</clipPath>
</defs>
</svg>
